<?xml version="1.0" standalone="no"?>
<!DOCTYPE svg PUBLIC "-//W3C//DTD SVG 20010904//EN"
 "http://www.w3.org/TR/2001/REC-SVG-20010904/DTD/svg10.dtd">
<svg version="1.0" xmlns="http://www.w3.org/2000/svg"
 width="65.000000pt" height="65.000000pt" viewBox="0 0 65.000000 65.000000"
 preserveAspectRatio="xMidYMid meet">

<g transform="translate(0.000000,65.000000) scale(0.100000,-0.100000)"
fill="#000000" stroke="none">
<path d="M280 585 c-69 -24 -138 -48 -155 -54 -30 -10 -30 -10 -27 -81 3 -61
6 -70 20 -66 15 5 211 49 270 62 21 4 22 9 22 94 0 50 -1 89 -2 89 -2 -1 -59
-21 -128 -44z"/>
<path d="M385 390 c-11 -4 -82 -19 -157 -35 l-138 -28 0 -65 0 -65 62 6 c35 4
102 9 150 13 47 4 91 10 97 14 8 4 11 35 9 87 -3 75 -4 80 -23 73z"/>
<path d="M305 160 c-33 -4 -95 -11 -137 -15 l-78 -7 0 -64 0 -64 160 0 160 0
0 80 c0 91 10 84 -105 70z"/>
</g>
</svg>
